# xmcd
#
# Track frame offsets: 
#        150
#        16175
#        30665
#        47336
#        63786
#        78689
#        97821
#        114764
#        131630
#        146382
#        163820
#        178120
#
# Disc length: 2651 seconds
#
# Revision: 0
# Processed by: cddbd v1.5.2PL0 Copyright (c) Steve Scherf et al.
# Submitted via: ExactAudioCopyFreeDBPlugin 1.0
#
DISCID=8d0a590c
DTITLE=Jeroen Van Der Boom - Deze Man
DYEAR=2013
DGENRE=Pop-Folk
TTITLE0=Beter Laat Dan Nooit
TTITLE1=Deze Man
TTITLE2=Alles Wat Ik Wil
TTITLE3=Jij
TTITLE4=Liefde Staat Je Goed
TTITLE5=Missen
TTITLE6=Dit Is Het Leven
TTITLE7=Met Jou
TTITLE8=Traan Voor Traan
TTITLE9=Vlinders Verdwijnen
TTITLE10=Nanana
TTITLE11=Liefde Leeft
EXTD=
EXTT0=
EXTT1=
EXTT2=
EXTT3=
EXTT4=
EXTT5=
EXTT6=
EXTT7=
EXTT8=
EXTT9=
EXTT10=
EXTT11=
PLAYORDER=
